<?xml version='1.0' encoding='UTF-8'?>
<svg width="73mm" height="73mm" version="1.1" viewBox="0 0 73 73" xmlns="http://www.w3.org/2000/svg"><path d="M0,0H1V1H0zM1,0H2V1H1zM2,0H3V1H2zM3,0H4V1H3zM4,0H5V1H4zM5,0H6V1H5zM6,0H7V1H6zM10,0H11V1H10zM11,0H12V1H11zM12,0H13V1H12zM15,0H16V1H15zM17,0H18V1H17zM20,0H21V1H20zM21,0H22V1H21zM23,0H24V1H23zM24,0H25V1H24zM25,0H26V1H25zM26,0H27V1H26zM27,0H28V1H27zM28,0H29V1H28zM29,0H30V1H29zM36,0H37V1H36zM38,0H39V1H38zM39,0H40V1H39zM42,0H43V1H42zM43,0H44V1H43zM46,0H47V1H46zM48,0H49V1H48zM49,0H50V1H49zM52,0H53V1H52zM53,0H54V1H53zM56,0H57V1H56zM57,0H58V1H57zM58,0H59V1H58zM59,0H60V1H59zM60,0H61V1H60zM61,0H62V1H61zM62,0H63V1H62zM64,0H65V1H64zM66,0H67V1H66zM67,0H68V1H67zM68,0H69V1H68zM69,0H70V1H69zM70,0H71V1H70zM71,0H72V1H71zM72,0H73V1H72zM0,1H1V2H0zM6,1H7V2H6zM12,1H13V2H12zM13,1H14V2H13zM14,1H15V2H14zM15,1H16V2H15zM16,1H17V2H16zM20,1H21V2H20zM21,1H22V2H21zM22,1H23V2H22zM23,1H24V2H23zM26,1H27V2H26zM29,1H30V2H29zM32,1H33V2H32zM37,1H38V2H37zM44,1H45V2H44zM46,1H47V2H46zM50,1H51V2H50zM54,1H55V2H54zM55,1H56V2H55zM57,1H58V2H57zM59,1H60V2H59zM62,1H63V2H62zM66,1H67V2H66zM72,1H73V2H72zM0,2H1V3H0zM2,2H3V3H2zM3,2H4V3H3zM4,2H5V3H4zM6,2H7V3H6zM8,2H9V3H8zM9,2H10V3H9zM11,2H12V3H11zM12,2H13V3H12zM14,2H15V3H14zM15,2H16V3H15zM17,2H18V3H17zM18,2H19V3H18zM20,2H21V3H20zM22,2H23V3H22zM24,2H25V3H24zM25,2H26V3H25zM26,2H27V3H26zM27,2H28V3H27zM30,2H31V3H30zM32,2H33V3H32zM34,2H35V3H34zM35,2H36V3H35zM36,2H37V3H36zM38,2H39V3H38zM40,2H41V3H40zM42,2H43V3H42zM44,2H45V3H44zM45,2H46V3H45zM47,2H48V3H47zM48,2H49V3H48zM49,2H50V3H49zM51,2H52V3H51zM53,2H54V3H53zM54,2H55V3H54zM60,2H61V3H60zM61,2H62V3H61zM66,2H67V3H66zM68,2H69V3H68zM69,2H70V3H69zM70,2H71V3H70zM72,2H73V3H72zM0,3H1V4H0zM2,3H3V4H2zM3,3H4V4H3zM4,3H5V4H4zM6,3H7V4H6zM8,3H9V4H8zM9,3H10V4H9zM10,3H11V4H10zM13,3H14V4H13zM15,3H16V4H15zM17,3H18V4H17zM19,3H20V4H19zM20,3H21V4H20zM25,3H26V4H25zM29,3H30V4H29zM32,3H33V4H32zM33,3H34V4H33zM35,3H36V4H35zM36,3H37V4H36zM39,3H40V4H39zM40,3H41V4H40zM41,3H42V4H41zM42,3H43V4H42zM43,3H44V4H43zM45,3H46V4H45zM48,3H49V4H48zM49,3H50V4H49zM50,3H51V4H50zM51,3H52V4H51zM52,3H53V4H52zM53,3H54V4H53zM57,3H58V4H57zM58,3H59V4H58zM60,3H61V4H60zM61,3H62V4H61zM62,3H63V4H62zM63,3H64V4H63zM66,3H67V4H66zM68,3H69V4H68zM69,3H70V4H69zM70,3H71V4H70zM72,3H73V4H72zM0,4H1V5H0zM2,4H3V5H2zM3,4H4V5H3zM4,4H5V5H4zM6,4H7V5H6zM8,4H9V5H8zM9,4H10V5H9zM12,4H13V5H12zM13,4H14V5H13zM15,4H16V5H15zM16,4H17V5H16zM17,4H18V5H17zM18,4H19V5H18zM19,4H20V5H19zM20,4H21V5H20zM21,4H22V5H21zM22,4H23V5H22zM24,4H25V5H24zM25,4H26V5H25zM26,4H27V5H26zM27,4H28V5H27zM28,4H29V5H28zM30,4H31V5H30zM31,4H32V5H31zM32,4H33V5H32zM35,4H36V5H35zM37,4H38V5H37zM38,4H39V5H38zM39,4H40V5H39zM40,4H41V5H40zM41,4H42V5H41zM43,4H44V5H43zM44,4H45V5H44zM45,4H46V5H45zM46,4H47V5H46zM47,4H48V5H47zM48,4H49V5H48zM49,4H50V5H49zM53,4H54V5H53zM54,4H55V5H54zM55,4H56V5H55zM56,4H57V5H56zM57,4H58V5H57zM63,4H64V5H63zM64,4H65V5H64zM66,4H67V5H66zM68,4H69V5H68zM69,4H70V5H69zM70,4H71V5H70zM72,4H73V5H72zM0,5H1V6H0zM6,5H7V6H6zM8,5H9V6H8zM9,5H10V6H9zM12,5H13V6H12zM15,5H16V6H15zM18,5H19V6H18zM20,5H21V6H20zM23,5H24V6H23zM24,5H25V6H24zM28,5H29V6H28zM34,5H35V6H34zM37,5H38V6H37zM38,5H39V6H38zM40,5H41V6H40zM41,5H42V6H41zM44,5H45V6H44zM48,5H49V6H48zM50,5H51V6H50zM52,5H53V6H52zM56,5H57V6H56zM57,5H58V6H57zM58,5H59V6H58zM59,5H60V6H59zM62,5H63V6H62zM66,5H67V6H66zM72,5H73V6H72zM0,6H1V7H0zM1,6H2V7H1zM2,6H3V7H2zM3,6H4V7H3zM4,6H5V7H4zM5,6H6V7H5zM6,6H7V7H6zM8,6H9V7H8zM10,6H11V7H10zM12,6H13V7H12zM14,6H15V7H14zM16,6H17V7H16zM18,6H19V7H18zM20,6H21V7H20zM22,6H23V7H22zM24,6H25V7H24zM26,6H27V7H26zM28,6H29V7H28zM30,6H31V7H30zM32,6H33V7H32zM34,6H35V7H34zM36,6H37V7H36zM38,6H39V7H38zM40,6H41V7H40zM42,6H43V7H42zM44,6H45V7H44zM46,6H47V7H46zM48,6H49V7H48zM50,6H51V7H50zM52,6H53V7H52zM54,6H55V7H54zM56,6H57V7H56zM58,6H59V7H58zM60,6H61V7H60zM62,6H63V7H62zM64,6H65V7H64zM66,6H67V7H66zM67,6H68V7H67zM68,6H69V7H68zM69,6H70V7H69zM70,6H71V7H70zM71,6H72V7H71zM72,6H73V7H72zM8,7H9V8H8zM9,7H10V8H9zM12,7H13V8H12zM14,7H15V8H14zM16,7H17V8H16zM19,7H20V8H19zM20,7H21V8H20zM21,7H22V8H21zM22,7H23V8H22zM24,7H25V8H24zM28,7H29V8H28zM30,7H31V8H30zM35,7H36V8H35zM36,7H37V8H36zM38,7H39V8H38zM41,7H42V8H41zM43,7H44V8H43zM44,7H45V8H44zM48,7H49V8H48zM49,7H50V8H49zM51,7H52V8H51zM52,7H53V8H52zM54,7H55V8H54zM55,7H56V8H55zM59,7H60V8H59zM61,7H62V8H61zM0,8H1V9H0zM2,8H3V9H2zM3,8H4V9H3zM4,8H5V9H4zM5,8H6V9H5zM6,8H7V9H6zM9,8H10V9H9zM10,8H11V9H10zM12,8H13V9H12zM13,8H14V9H13zM15,8H16V9H15zM17,8H18V9H17zM19,8H20V9H19zM21,8H22V9H21zM24,8H25V9H24zM25,8H26V9H25zM26,8H27V9H26zM27,8H28V9H27zM28,8H29V9H28zM33,8H34V9H33zM36,8H37V9H36zM37,8H38V9H37zM39,8H40V9H39zM41,8H42V9H41zM43,8H44V9H43zM44,8H45V9H44zM45,8H46V9H45zM46,8H47V9H46zM47,8H48V9H47zM48,8H49V9H48zM49,8H50V9H49zM50,8H51V9H50zM51,8H52V9H51zM52,8H53V9H52zM54,8H55V9H54zM55,8H56V9H55zM58,8H59V9H58zM61,8H62V9H61zM66,8H67V9H66zM67,8H68V9H67zM68,8H69V9H68zM69,8H70V9H69zM70,8H71V9H70zM0,9H1V10H0zM2,9H3V10H2zM3,9H4V10H3zM7,9H8V10H7zM8,9H9V10H8zM9,9H10V10H9zM10,9H11V10H10zM11,9H12V10H11zM14,9H15V10H14zM15,9H16V10H15zM16,9H17V10H16zM17,9H18V10H17zM20,9H21V10H20zM22,9H23V10H22zM24,9H25V10H24zM25,9H26V10H25zM28,9H29V10H28zM29,9H30V10H29zM30,9H31V10H30zM31,9H32V10H31zM32,9H33V10H32zM34,9H35V10H34zM37,9H38V10H37zM38,9H39V10H38zM39,9H40V10H39zM44,9H45V10H44zM45,9H46V10H45zM47,9H48V10H47zM55,9H56V10H55zM56,9H57V10H56zM57,9H58V10H57zM68,9H69V10H68zM69,9H70V10H69zM70,9H71V10H70zM71,9H72V10H71zM72,9H73V10H72zM3,10H4V11H3zM4,10H5V11H4zM5,10H6V11H5zM6,10H7V11H6zM8,10H9V11H8zM11,10H12V11H11zM12,10H13V11H12zM13,10H14V11H13zM14,10H15V11H14zM15,10H16V11H15zM19,10H20V11H19zM21,10H22V11H21zM22,10H23V11H22zM25,10H26V11H25zM26,10H27V11H26zM28,10H29V11H28zM29,10H30V11H29zM32,10H33V11H32zM33,10H34V11H33zM34,10H35V11H34zM35,10H36V11H35zM36,10H37V11H36zM37,10H38V11H37zM40,10H41V11H40zM46,10H47V11H46zM49,10H50V11H49zM50,10H51V11H50zM51,10H52V11H51zM58,10H59V11H58zM59,10H60V11H59zM61,10H62V11H61zM65,10H66V11H65zM66,10H67V11H66zM68,10H69V11H68zM3,11H4V12H3zM4,11H5V12H4zM5,11H6V12H5zM8,11H9V12H8zM10,11H11V12H10zM12,11H13V12H12zM13,11H14V12H13zM14,11H15V12H14zM18,11H19V12H18zM19,11H20V12H19zM20,11H21V12H20zM21,11H22V12H21zM22,11H23V12H22zM23,11H24V12H23zM26,11H27V12H26zM28,11H29V12H28zM29,11H30V12H29zM30,11H31V12H30zM31,11H32V12H31zM34,11H35V12H34zM38,11H39V12H38zM46,11H47V12H46zM47,11H48V12H47zM49,11H50V12H49zM52,11H53V12H52zM56,11H57V12H56zM57,11H58V12H57zM59,11H60V12H59zM60,11H61V12H60zM63,11H64V12H63zM68,11H69V12H68zM69,11H70V12H69zM71,11H72V12H71zM72,11H73V12H72zM1,12H2V13H1zM6,12H7V13H6zM7,12H8V13H7zM10,12H11V13H10zM11,12H12V13H11zM16,12H17V13H16zM17,12H18V13H17zM21,12H22V13H21zM23,12H24V13H23zM24,12H25V13H24zM26,12H27V13H26zM27,12H28V13H27zM38,12H39V13H38zM40,12H41V13H40zM41,12H42V13H41zM44,12H45V13H44zM51,12H52V13H51zM52,12H53V13H52zM55,12H56V13H55zM59,12H60V13H59zM61,12H62V13H61zM62,12H63V13H62zM65,12H66V13H65zM66,12H67V13H66zM67,12H68V13H67zM68,12H69V13H68zM70,12H71V13H70zM2,13H3V14H2zM8,13H9V14H8zM9,13H10V14H9zM11,13H12V14H11zM12,13H13V14H12zM13,13H14V14H13zM14,13H15V14H14zM16,13H17V14H16zM17,13H18V14H17zM18,13H19V14H18zM20,13H21V14H20zM22,13H23V14H22zM23,13H24V14H23zM25,13H26V14H25zM26,13H27V14H26zM27,13H28V14H27zM31,13H32V14H31zM34,13H35V14H34zM35,13H36V14H35zM37,13H38V14H37zM39,13H40V14H39zM41,13H42V14H41zM44,13H45V14H44zM48,13H49V14H48zM51,13H52V14H51zM52,13H53V14H52zM53,13H54V14H53zM54,13H55V14H54zM55,13H56V14H55zM57,13H58V14H57zM58,13H59V14H58zM63,13H64V14H63zM66,13H67V14H66zM67,13H68V14H67zM69,13H70V14H69zM70,13H71V14H70zM71,13H72V14H71zM72,13H73V14H72zM2,14H3V15H2zM3,14H4V15H3zM4,14H5V15H4zM5,14H6V15H5zM6,14H7V15H6zM9,14H10V15H9zM10,14H11V15H10zM11,14H12V15H11zM19,14H20V15H19zM20,14H21V15H20zM22,14H23V15H22zM26,14H27V15H26zM27,14H28V15H27zM28,14H29V15H28zM32,14H33V15H32zM34,14H35V15H34zM37,14H38V15H37zM38,14H39V15H38zM40,14H41V15H40zM44,14H45V15H44zM46,14H47V15H46zM50,14H51V15H50zM55,14H56V15H55zM57,14H58V15H57zM61,14H62V15H61zM63,14H64V15H63zM65,14H66V15H65zM66,14H67V15H66zM67,14H68V15H67zM70,14H71V15H70zM71,14H72V15H71zM72,14H73V15H72zM0,15H1V16H0zM5,15H6V16H5zM8,15H9V16H8zM10,15H11V16H10zM11,15H12V16H11zM13,15H14V16H13zM14,15H15V16H14zM16,15H17V16H16zM17,15H18V16H17zM18,15H19V16H18zM22,15H23V16H22zM24,15H25V16H24zM25,15H26V16H25zM26,15H27V16H26zM27,15H28V16H27zM30,15H31V16H30zM32,15H33V16H32zM33,15H34V16H33zM36,15H37V16H36zM40,15H41V16H40zM42,15H43V16H42zM43,15H44V16H43zM44,15H45V16H44zM45,15H46V16H45zM46,15H47V16H46zM49,15H50V16H49zM51,15H52V16H51zM53,15H54V16H53zM54,15H55V16H54zM55,15H56V16H55zM57,15H58V16H57zM58,15H59V16H58zM60,15H61V16H60zM62,15H63V16H62zM65,15H66V16H65zM69,15H70V16H69zM70,15H71V16H70zM1,16H2V17H1zM6,16H7V17H6zM8,16H9V17H8zM14,16H15V17H14zM16,16H17V17H16zM17,16H18V17H17zM19,16H20V17H19zM20,16H21V17H20zM21,16H22V17H21zM22,16H23V17H22zM24,16H25V17H24zM28,16H29V17H28zM29,16H30V17H29zM30,16H31V17H30zM31,16H32V17H31zM35,16H36V17H35zM37,16H38V17H37zM39,16H40V17H39zM41,16H42V17H41zM42,16H43V17H42zM44,16H45V17H44zM46,16H47V17H46zM48,16H49V17H48zM49,16H50V17H49zM50,16H51V17H50zM51,16H52V17H51zM52,16H53V17H52zM53,16H54V17H53zM54,16H55V17H54zM55,16H56V17H55zM59,16H60V17H59zM60,16H61V17H60zM61,16H62V17H61zM62,16H63V17H62zM64,16H65V17H64zM65,16H66V17H65zM69,16H70V17H69zM70,16H71V17H70zM71,16H72V17H71zM72,16H73V17H72zM1,17H2V18H1zM5,17H6V18H5zM7,17H8V18H7zM10,17H11V18H10zM11,17H12V18H11zM13,17H14V18H13zM19,17H20V18H19zM20,17H21V18H20zM21,17H22V18H21zM26,17H27V18H26zM30,17H31V18H30zM31,17H32V18H31zM32,17H33V18H32zM33,17H34V18H33zM39,17H40V18H39zM42,17H43V18H42zM43,17H44V18H43zM44,17H45V18H44zM50,17H51V18H50zM51,17H52V18H51zM53,17H54V18H53zM54,17H55V18H54zM58,17H59V18H58zM60,17H61V18H60zM62,17H63V18H62zM65,17H66V18H65zM66,17H67V18H66zM70,17H71V18H70zM72,17H73V18H72zM0,18H1V19H0zM3,18H4V19H3zM5,18H6V19H5zM6,18H7V19H6zM7,18H8V19H7zM8,18H9V19H8zM12,18H13V19H12zM16,18H17V19H16zM19,18H20V19H19zM20,18H21V19H20zM22,18H23V19H22zM24,18H25V19H24zM27,18H28V19H27zM28,18H29V19H28zM29,18H30V19H29zM30,18H31V19H30zM31,18H32V19H31zM35,18H36V19H35zM37,18H38V19H37zM41,18H42V19H41zM42,18H43V19H42zM43,18H44V19H43zM48,18H49V19H48zM49,18H50V19H49zM50,18H51V19H50zM52,18H53V19H52zM56,18H57V19H56zM62,18H63V19H62zM65,18H66V19H65zM68,18H69V19H68zM71,18H72V19H71zM72,18H73V19H72zM1,19H2V20H1zM2,19H3V20H2zM7,19H8V20H7zM8,19H9V20H8zM10,19H11V20H10zM11,19H12V20H11zM12,19H13V20H12zM13,19H14V20H13zM14,19H15V20H14zM15,19H16V20H15zM16,19H17V20H16zM19,19H20V20H19zM20,19H21V20H20zM21,19H22V20H21zM22,19H23V20H22zM25,19H26V20H25zM26,19H27V20H26zM27,19H28V20H27zM30,19H31V20H30zM33,19H34V20H33zM36,19H37V20H36zM37,19H38V20H37zM38,19H39V20H38zM39,19H40V20H39zM41,19H42V20H41zM42,19H43V20H42zM43,19H44V20H43zM44,19H45V20H44zM45,19H46V20H45zM46,19H47V20H46zM52,19H53V20H52zM56,19H57V20H56zM60,19H61V20H60zM62,19H63V20H62zM64,19H65V20H64zM65,19H66V20H65zM1,20H2V21H1zM3,20H4V21H3zM5,20H6V21H5zM6,20H7V21H6zM7,20H8V21H7zM12,20H13V21H12zM13,20H14V21H13zM14,20H15V21H14zM17,20H18V21H17zM18,20H19V21H18zM19,20H20V21H19zM21,20H22V21H21zM25,20H26V21H25zM27,20H28V21H27zM28,20H29V21H28zM29,20H30V21H29zM30,20H31V21H30zM31,20H32V21H31zM32,20H33V21H32zM35,20H36V21H35zM37,20H38V21H37zM40,20H41V21H40zM42,20H43V21H42zM43,20H44V21H43zM44,20H45V21H44zM46,20H47V21H46zM49,20H50V21H49zM50,20H51V21H50zM53,20H54V21H53zM57,20H58V21H57zM59,20H60V21H59zM60,20H61V21H60zM63,20H64V21H63zM65,20H66V21H65zM66,20H67V21H66zM69,20H70V21H69zM70,20H71V21H70zM72,20H73V21H72zM0,21H1V22H0zM1,21H2V22H1zM4,21H5V22H4zM7,21H8V22H7zM11,21H12V22H11zM13,21H14V22H13zM15,21H16V22H15zM16,21H17V22H16zM19,21H20V22H19zM21,21H22V22H21zM22,21H23V22H22zM24,21H25V22H24zM26,21H27V22H26zM28,21H29V22H28zM29,21H30V22H29zM30,21H31V22H30zM32,21H33V22H32zM33,21H34V22H33zM39,21H40V22H39zM40,21H41V22H40zM41,21H42V22H41zM42,21H43V22H42zM45,21H46V22H45zM47,21H48V22H47zM48,21H49V22H48zM50,21H51V22H50zM51,21H52V22H51zM53,21H54V22H53zM54,21H55V22H54zM57,21H58V22H57zM58,21H59V22H58zM61,21H62V22H61zM62,21H63V22H62zM64,21H65V22H64zM65,21H66V22H65zM68,21H69V22H68zM69,21H70V22H69zM70,21H71V22H70zM71,21H72V22H71zM72,21H73V22H72zM0,22H1V23H0zM2,22H3V23H2zM4,22H5V23H4zM5,22H6V23H5zM6,22H7V23H6zM7,22H8V23H7zM12,22H13V23H12zM13,22H14V23H13zM15,22H16V23H15zM16,22H17V23H16zM17,22H18V23H17zM18,22H19V23H18zM21,22H22V23H21zM23,22H24V23H23zM24,22H25V23H24zM26,22H27V23H26zM27,22H28V23H27zM28,22H29V23H28zM30,22H31V23H30zM31,22H32V23H31zM32,22H33V23H32zM34,22H35V23H34zM35,22H36V23H35zM38,22H39V23H38zM40,22H41V23H40zM43,22H44V23H43zM44,22H45V23H44zM45,22H46V23H45zM47,22H48V23H47zM50,22H51V23H50zM54,22H55V23H54zM55,22H56V23H55zM56,22H57V23H56zM61,22H62V23H61zM62,22H63V23H62zM65,22H66V23H65zM66,22H67V23H66zM68,22H69V23H68zM70,22H71V23H70zM71,22H72V23H71zM72,22H73V23H72zM1,23H2V24H1zM3,23H4V24H3zM5,23H6V24H5zM8,23H9V24H8zM9,23H10V24H9zM11,23H12V24H11zM12,23H13V24H12zM13,23H14V24H13zM15,23H16V24H15zM20,23H21V24H20zM21,23H22V24H21zM24,23H25V24H24zM26,23H27V24H26zM28,23H29V24H28zM29,23H30V24H29zM30,23H31V24H30zM31,23H32V24H31zM33,23H34V24H33zM35,23H36V24H35zM37,23H38V24H37zM41,23H42V24H41zM44,23H45V24H44zM46,23H47V24H46zM47,23H48V24H47zM49,23H50V24H49zM51,23H52V24H51zM52,23H53V24H52zM57,23H58V24H57zM60,23H61V24H60zM62,23H63V24H62zM64,23H65V24H64zM66,23H67V24H66zM68,23H69V24H68zM69,23H70V24H69zM70,23H71V24H70zM71,23H72V24H71zM1,24H2V25H1zM3,24H4V25H3zM4,24H5V25H4zM5,24H6V25H5zM6,24H7V25H6zM7,24H8V25H7zM8,24H9V25H8zM11,24H12V25H11zM12,24H13V25H12zM17,24H18V25H17zM18,24H19V25H18zM19,24H20V25H19zM20,24H21V25H20zM22,24H23V25H22zM23,24H24V25H23zM24,24H25V25H24zM25,24H26V25H25zM26,24H27V25H26zM27,24H28V25H27zM28,24H29V25H28zM29,24H30V25H29zM32,24H33V25H32zM33,24H34V25H33zM36,24H37V25H36zM37,24H38V25H37zM38,24H39V25H38zM43,24H44V25H43zM44,24H45V25H44zM45,24H46V25H45zM46,24H47V25H46zM47,24H48V25H47zM48,24H49V25H48zM50,24H51V25H50zM51,24H52V25H51zM54,24H55V25H54zM57,24H58V25H57zM60,24H61V25H60zM64,24H65V25H64zM65,24H66V25H65zM66,24H67V25H66zM67,24H68V25H67zM68,24H69V25H68zM70,24H71V25H70zM71,24H72V25H71zM1,25H2V26H1zM2,25H3V26H2zM3,25H4V26H3zM4,25H5V26H4zM8,25H9V26H8zM9,25H10V26H9zM12,25H13V26H12zM13,25H14V26H13zM15,25H16V26H15zM17,25H18V26H17zM18,25H19V26H18zM20,25H21V26H20zM22,25H23V26H22zM23,25H24V26H23zM24,25H25V26H24zM28,25H29V26H28zM29,25H30V26H29zM30,25H31V26H30zM31,25H32V26H31zM33,25H34V26H33zM37,25H38V26H37zM39,25H40V26H39zM40,25H41V26H40zM41,25H42V26H41zM43,25H44V26H43zM44,25H45V26H44zM48,25H49V26H48zM51,25H52V26H51zM54,25H55V26H54zM55,25H56V26H55zM56,25H57V26H56zM63,25H64V26H63zM64,25H65V26H64zM68,25H69V26H68zM69,25H70V26H69zM70,25H71V26H70zM72,25H73V26H72zM4,26H5V27H4zM6,26H7V27H6zM8,26H9V27H8zM9,26H10V27H9zM11,26H12V27H11zM12,26H13V27H12zM17,26H18V27H17zM18,26H19V27H18zM19,26H20V27H19zM20,26H21V27H20zM23,26H24V27H23zM24,26H25V27H24zM26,26H27V27H26zM28,26H29V27H28zM29,26H30V27H29zM30,26H31V27H30zM32,26H33V27H32zM33,26H34V27H33zM35,26H36V27H35zM36,26H37V27H36zM38,26H39V27H38zM42,26H43V27H42zM43,26H44V27H43zM44,26H45V27H44zM46,26H47V27H46zM48,26H49V27H48zM50,26H51V27H50zM51,26H52V27H51zM54,26H55V27H54zM57,26H58V27H57zM59,26H60V27H59zM60,26H61V27H60zM62,26H63V27H62zM63,26H64V27H63zM64,26H65V27H64zM66,26H67V27H66zM68,26H69V27H68zM72,26H73V27H72zM0,27H1V28H0zM4,27H5V28H4zM8,27H9V28H8zM9,27H10V28H9zM10,27H11V28H10zM13,27H14V28H13zM16,27H17V28H16zM19,27H20V28H19zM20,27H21V28H20zM23,27H24V28H23zM24,27H25V28H24zM28,27H29V28H28zM29,27H30V28H29zM30,27H31V28H30zM31,27H32V28H31zM39,27H40V28H39zM41,27H42V28H41zM42,27H43V28H42zM43,27H44V28H43zM44,27H45V28H44zM48,27H49V28H48zM49,27H50V28H49zM52,27H53V28H52zM53,27H54V28H53zM55,27H56V28H55zM56,27H57V28H56zM57,27H58V28H57zM59,27H60V28H59zM60,27H61V28H60zM61,27H62V28H61zM64,27H65V28H64zM68,27H69V28H68zM69,27H70V28H69zM70,27H71V28H70zM72,27H73V28H72zM0,28H1V29H0zM4,28H5V29H4zM5,28H6V29H5zM6,28H7V29H6zM7,28H8V29H7zM8,28H9V29H8zM9,28H10V29H9zM10,28H11V29H10zM12,28H13V29H12zM17,28H18V29H17zM23,28H24V29H23zM24,28H25V29H24zM25,28H26V29H25zM26,28H27V29H26zM27,28H28V29H27zM28,28H29V29H28zM30,28H31V29H30zM32,28H33V29H32zM33,28H34V29H33zM36,28H37V29H36zM37,28H38V29H37zM38,28H39V29H38zM43,28H44V29H43zM44,28H45V29H44zM45,28H46V29H45zM46,28H47V29H46zM47,28H48V29H47zM48,28H49V29H48zM50,28H51V29H50zM51,28H52V29H51zM53,28H54V29H53zM54,28H55V29H54zM56,28H57V29H56zM58,28H59V29H58zM60,28H61V29H60zM62,28H63V29H62zM63,28H64V29H63zM64,28H65V29H64zM65,28H66V29H65zM66,28H67V29H66zM67,28H68V29H67zM68,28H69V29H68zM72,28H73V29H72zM0,29H1V30H0zM3,29H4V30H3zM4,29H5V30H4zM5,29H6V30H5zM8,29H9V30H8zM9,29H10V30H9zM13,29H14V30H13zM14,29H15V30H14zM18,29H19V30H18zM19,29H20V30H19zM20,29H21V30H20zM23,29H24V30H23zM24,29H25V30H24zM28,29H29V30H28zM29,29H30V30H29zM34,29H35V30H34zM35,29H36V30H35zM36,29H37V30H36zM39,29H40V30H39zM40,29H41V30H40zM42,29H43V30H42zM43,29H44V30H43zM45,29H46V30H45zM46,29H47V30H46zM49,29H50V30H49zM50,29H51V30H50zM52,29H53V30H52zM55,29H56V30H55zM56,29H57V30H56zM57,29H58V30H57zM63,29H64V30H63zM65,29H66V30H65zM66,29H67V30H66zM67,29H68V30H67zM68,29H69V30H68zM70,29H71V30H70zM0,30H1V31H0zM1,30H2V31H1zM2,30H3V31H2zM6,30H7V31H6zM7,30H8V31H7zM8,30H9V31H8zM9,30H10V31H9zM10,30H11V31H10zM13,30H14V31H13zM14,30H15V31H14zM15,30H16V31H15zM16,30H17V31H16zM18,30H19V31H18zM20,30H21V31H20zM21,30H22V31H21zM22,30H23V31H22zM24,30H25V31H24zM25,30H26V31H25zM27,30H28V31H27zM30,30H31V31H30zM32,30H33V31H32zM33,30H34V31H33zM37,30H38V31H37zM39,30H40V31H39zM41,30H42V31H41zM46,30H47V31H46zM52,30H53V31H52zM54,30H55V31H54zM55,30H56V31H55zM56,30H57V31H56zM57,30H58V31H57zM60,30H61V31H60zM63,30H64V31H63zM64,30H65V31H64zM65,30H66V31H65zM66,30H67V31H66zM67,30H68V31H67zM71,30H72V31H71zM72,30H73V31H72zM0,31H1V32H0zM1,31H2V32H1zM4,31H5V32H4zM7,31H8V32H7zM10,31H11V32H10zM13,31H14V32H13zM14,31H15V32H14zM17,31H18V32H17zM19,31H20V32H19zM20,31H21V32H20zM21,31H22V32H21zM22,31H23V32H22zM24,31H25V32H24zM26,31H27V32H26zM27,31H28V32H27zM28,31H29V32H28zM29,31H30V32H29zM31,31H32V32H31zM33,31H34V32H33zM34,31H35V32H34zM36,31H37V32H36zM38,31H39V32H38zM41,31H42V32H41zM43,31H44V32H43zM44,31H45V32H44zM47,31H48V32H47zM51,31H52V32H51zM53,31H54V32H53zM54,31H55V32H54zM57,31H58V32H57zM59,31H60V32H59zM60,31H61V32H60zM62,31H63V32H62zM63,31H64V32H63zM67,31H68V32H67zM68,31H69V32H68zM69,31H70V32H69zM70,31H71V32H70zM72,31H73V32H72zM0,32H1V33H0zM1,32H2V33H1zM3,32H4V33H3zM4,32H5V33H4zM5,32H6V33H5zM6,32H7V33H6zM7,32H8V33H7zM8,32H9V33H8zM9,32H10V33H9zM11,32H12V33H11zM13,32H14V33H13zM14,32H15V33H14zM16,32H17V33H16zM20,32H21V33H20zM24,32H25V33H24zM25,32H26V33H25zM27,32H28V33H27zM31,32H32V33H31zM34,32H35V33H34zM35,32H36V33H35zM36,32H37V33H36zM37,32H38V33H37zM39,32H40V33H39zM40,32H41V33H40zM42,32H43V33H42zM44,32H45V33H44zM46,32H47V33H46zM47,32H48V33H47zM48,32H49V33H48zM50,32H51V33H50zM51,32H52V33H51zM52,32H53V33H52zM54,32H55V33H54zM56,32H57V33H56zM59,32H60V33H59zM61,32H62V33H61zM62,32H63V33H62zM67,32H68V33H67zM68,32H69V33H68zM69,32H70V33H69zM71,32H72V33H71zM72,32H73V33H72zM0,33H1V34H0zM1,33H2V34H1zM2,33H3V34H2zM3,33H4V34H3zM4,33H5V34H4zM5,33H6V34H5zM7,33H8V34H7zM9,33H10V34H9zM12,33H13V34H12zM14,33H15V34H14zM15,33H16V34H15zM17,33H18V34H17zM19,33H20V34H19zM25,33H26V34H25zM27,33H28V34H27zM28,33H29V34H28zM29,33H30V34H29zM30,33H31V34H30zM33,33H34V34H33zM36,33H37V34H36zM39,33H40V34H39zM42,33H43V34H42zM43,33H44V34H43zM44,33H45V34H44zM47,33H48V34H47zM49,33H50V34H49zM51,33H52V34H51zM53,33H54V34H53zM57,33H58V34H57zM58,33H59V34H58zM59,33H60V34H59zM63,33H64V34H63zM64,33H65V34H64zM66,33H67V34H66zM67,33H68V34H67zM68,33H69V34H68zM69,33H70V34H69zM70,33H71V34H70zM71,33H72V34H71zM72,33H73V34H72zM1,34H2V35H1zM2,34H3V35H2zM4,34H5V35H4zM6,34H7V35H6zM7,34H8V35H7zM11,34H12V35H11zM12,34H13V35H12zM13,34H14V35H13zM17,34H18V35H17zM18,34H19V35H18zM19,34H20V35H19zM20,34H21V35H20zM26,34H27V35H26zM27,34H28V35H27zM30,34H31V35H30zM32,34H33V35H32zM33,34H34V35H33zM36,34H37V35H36zM37,34H38V35H37zM38,34H39V35H38zM39,34H40V35H39zM43,34H44V35H43zM45,34H46V35H45zM46,34H47V35H46zM47,34H48V35H47zM50,34H51V35H50zM51,34H52V35H51zM54,34H55V35H54zM56,34H57V35H56zM57,34H58V35H57zM59,34H60V35H59zM61,34H62V35H61zM63,34H64V35H63zM64,34H65V35H64zM65,34H66V35H65zM66,34H67V35H66zM72,34H73V35H72zM1,35H2V36H1zM4,35H5V36H4zM5,35H6V36H5zM11,35H12V36H11zM14,35H15V36H14zM16,35H17V36H16zM18,35H19V36H18zM19,35H20V36H19zM21,35H22V36H21zM22,35H23V36H22zM26,35H27V36H26zM31,35H32V36H31zM33,35H34V36H33zM34,35H35V36H34zM37,35H38V36H37zM44,35H45V36H44zM47,35H48V36H47zM48,35H49V36H48zM54,35H55V36H54zM56,35H57V36H56zM57,35H58V36H57zM58,35H59V36H58zM59,35H60V36H59zM60,35H61V36H60zM62,35H63V36H62zM63,35H64V36H63zM66,35H67V36H66zM67,35H68V36H67zM68,35H69V36H68zM70,35H71V36H70zM72,35H73V36H72zM2,36H3V37H2zM4,36H5V37H4zM6,36H7V37H6zM9,36H10V37H9zM10,36H11V37H10zM12,36H13V37H12zM13,36H14V37H13zM16,36H17V37H16zM18,36H19V37H18zM19,36H20V37H19zM20,36H21V37H20zM21,36H22V37H21zM22,36H23V37H22zM23,36H24V37H23zM26,36H27V37H26zM28,36H29V37H28zM29,36H30V37H29zM32,36H33V37H32zM33,36H34V37H33zM34,36H35V37H34zM35,36H36V37H35zM36,36H37V37H36zM37,36H38V37H37zM39,36H40V37H39zM41,36H42V37H41zM43,36H44V37H43zM46,36H47V37H46zM48,36H49V37H48zM52,36H53V37H52zM53,36H54V37H53zM54,36H55V37H54zM56,36H57V37H56zM57,36H58V37H57zM58,36H59V37H58zM59,36H60V37H59zM60,36H61V37H60zM61,36H62V37H61zM62,36H63V37H62zM63,36H64V37H63zM68,36H69V37H68zM72,36H73V37H72zM0,37H1V38H0zM3,37H4V38H3zM7,37H8V38H7zM12,37H13V38H12zM14,37H15V38H14zM15,37H16V38H15zM17,37H18V38H17zM18,37H19V38H18zM19,37H20V38H19zM20,37H21V38H20zM22,37H23V38H22zM24,37H25V38H24zM27,37H28V38H27zM29,37H30V38H29zM34,37H35V38H34zM35,37H36V38H35zM36,37H37V38H36zM38,37H39V38H38zM39,37H40V38H39zM40,37H41V38H40zM41,37H42V38H41zM42,37H43V38H42zM44,37H45V38H44zM45,37H46V38H45zM46,37H47V38H46zM50,37H51V38H50zM52,37H53V38H52zM54,37H55V38H54zM55,37H56V38H55zM59,37H60V38H59zM62,37H63V38H62zM63,37H64V38H63zM64,37H65V38H64zM65,37H66V38H65zM66,37H67V38H66zM68,37H69V38H68zM69,37H70V38H69zM70,37H71V38H70zM72,37H73V38H72zM4,38H5V39H4zM5,38H6V39H5zM6,38H7V39H6zM7,38H8V39H7zM8,38H9V39H8zM9,38H10V39H9zM13,38H14V39H13zM15,38H16V39H15zM19,38H20V39H19zM21,38H22V39H21zM23,38H24V39H23zM25,38H26V39H25zM26,38H27V39H26zM27,38H28V39H27zM28,38H29V39H28zM35,38H36V39H35zM36,38H37V39H36zM38,38H39V39H38zM41,38H42V39H41zM42,38H43V39H42zM46,38H47V39H46zM48,38H49V39H48zM49,38H50V39H49zM52,38H53V39H52zM53,38H54V39H53zM55,38H56V39H55zM56,38H57V39H56zM57,38H58V39H57zM58,38H59V39H58zM60,38H61V39H60zM64,38H65V39H64zM67,38H68V39H67zM68,38H69V39H68zM69,38H70V39H69zM70,38H71V39H70zM71,38H72V39H71zM0,39H1V40H0zM1,39H2V40H1zM3,39H4V40H3zM7,39H8V40H7zM9,39H10V40H9zM11,39H12V40H11zM13,39H14V40H13zM14,39H15V40H14zM15,39H16V40H15zM17,39H18V40H17zM23,39H24V40H23zM24,39H25V40H24zM25,39H26V40H25zM26,39H27V40H26zM29,39H30V40H29zM31,39H32V40H31zM33,39H34V40H33zM34,39H35V40H34zM38,39H39V40H38zM39,39H40V40H39zM41,39H42V40H41zM45,39H46V40H45zM47,39H48V40H47zM48,39H49V40H48zM50,39H51V40H50zM54,39H55V40H54zM55,39H56V40H55zM56,39H57V40H56zM59,39H60V40H59zM63,39H64V40H63zM66,39H67V40H66zM67,39H68V40H67zM68,39H69V40H68zM72,39H73V40H72zM1,40H2V41H1zM2,40H3V41H2zM6,40H7V41H6zM8,40H9V41H8zM11,40H12V41H11zM14,40H15V41H14zM16,40H17V41H16zM18,40H19V41H18zM20,40H21V41H20zM21,40H22V41H21zM25,40H26V41H25zM27,40H28V41H27zM28,40H29V41H28zM29,40H30V41H29zM30,40H31V41H30zM32,40H33V41H32zM34,40H35V41H34zM36,40H37V41H36zM41,40H42V41H41zM42,40H43V41H42zM54,40H55V41H54zM56,40H57V41H56zM58,40H59V41H58zM59,40H60V41H59zM60,40H61V41H60zM62,40H63V41H62zM64,40H65V41H64zM65,40H66V41H65zM67,40H68V41H67zM70,40H71V41H70zM71,40H72V41H71zM72,40H73V41H72zM0,41H1V42H0zM4,41H5V42H4zM7,41H8V42H7zM11,41H12V42H11zM13,41H14V42H13zM26,41H27V42H26zM27,41H28V42H27zM29,41H30V42H29zM30,41H31V42H30zM34,41H35V42H34zM35,41H36V42H35zM36,41H37V42H36zM37,41H38V42H37zM38,41H39V42H38zM39,41H40V42H39zM40,41H41V42H40zM41,41H42V42H41zM43,41H44V42H43zM44,41H45V42H44zM45,41H46V42H45zM50,41H51V42H50zM52,41H53V42H52zM56,41H57V42H56zM57,41H58V42H57zM58,41H59V42H58zM59,41H60V42H59zM60,41H61V42H60zM62,41H63V42H62zM63,41H64V42H63zM65,41H66V42H65zM66,41H67V42H66zM72,41H73V42H72zM5,42H6V43H5zM6,42H7V43H6zM7,42H8V43H7zM8,42H9V43H8zM9,42H10V43H9zM10,42H11V43H10zM12,42H13V43H12zM13,42H14V43H13zM15,42H16V43H15zM18,42H19V43H18zM19,42H20V43H19zM20,42H21V43H20zM22,42H23V43H22zM24,42H25V43H24zM26,42H27V43H26zM29,42H30V43H29zM30,42H31V43H30zM31,42H32V43H31zM34,42H35V43H34zM38,42H39V43H38zM39,42H40V43H39zM41,42H42V43H41zM42,42H43V43H42zM43,42H44V43H43zM46,42H47V43H46zM47,42H48V43H47zM48,42H49V43H48zM51,42H52V43H51zM52,42H53V43H52zM54,42H55V43H54zM55,42H56V43H55zM56,42H57V43H56zM57,42H58V43H57zM59,42H60V43H59zM61,42H62V43H61zM67,42H68V43H67zM68,42H69V43H68zM70,42H71V43H70zM71,42H72V43H71zM72,42H73V43H72zM1,43H2V44H1zM3,43H4V44H3zM4,43H5V44H4zM7,43H8V44H7zM9,43H10V44H9zM10,43H11V44H10zM11,43H12V44H11zM13,43H14V44H13zM19,43H20V44H19zM20,43H21V44H20zM21,43H22V44H21zM23,43H24V44H23zM24,43H25V44H24zM26,43H27V44H26zM29,43H30V44H29zM30,43H31V44H30zM31,43H32V44H31zM32,43H33V44H32zM33,43H34V44H33zM34,43H35V44H34zM35,43H36V44H35zM37,43H38V44H37zM39,43H40V44H39zM40,43H41V44H40zM41,43H42V44H41zM47,43H48V44H47zM48,43H49V44H48zM50,43H51V44H50zM51,43H52V44H51zM52,43H53V44H52zM53,43H54V44H53zM56,43H57V44H56zM61,43H62V44H61zM62,43H63V44H62zM67,43H68V44H67zM68,43H69V44H68zM72,43H73V44H72zM0,44H1V45H0zM2,44H3V45H2zM3,44H4V45H3zM4,44H5V45H4zM5,44H6V45H5zM6,44H7V45H6zM7,44H8V45H7zM8,44H9V45H8zM9,44H10V45H9zM10,44H11V45H10zM11,44H12V45H11zM13,44H14V45H13zM14,44H15V45H14zM15,44H16V45H15zM17,44H18V45H17zM18,44H19V45H18zM21,44H22V45H21zM24,44H25V45H24zM25,44H26V45H25zM26,44H27V45H26zM27,44H28V45H27zM28,44H29V45H28zM29,44H30V45H29zM30,44H31V45H30zM32,44H33V45H32zM34,44H35V45H34zM35,44H36V45H35zM36,44H37V45H36zM37,44H38V45H37zM38,44H39V45H38zM40,44H41V45H40zM42,44H43V45H42zM43,44H44V45H43zM44,44H45V45H44zM45,44H46V45H45zM46,44H47V45H46zM47,44H48V45H47zM48,44H49V45H48zM50,44H51V45H50zM52,44H53V45H52zM53,44H54V45H53zM55,44H56V45H55zM56,44H57V45H56zM57,44H58V45H57zM58,44H59V45H58zM59,44H60V45H59zM61,44H62V45H61zM62,44H63V45H62zM64,44H65V45H64zM65,44H66V45H65zM66,44H67V45H66zM67,44H68V45H67zM68,44H69V45H68zM69,44H70V45H69zM71,44H72V45H71zM72,44H73V45H72zM3,45H4V46H3zM4,45H5V46H4zM8,45H9V46H8zM9,45H10V46H9zM11,45H12V46H11zM14,45H15V46H14zM17,45H18V46H17zM18,45H19V46H18zM22,45H23V46H22zM23,45H24V46H23zM24,45H25V46H24zM28,45H29V46H28zM29,45H30V46H29zM32,45H33V46H32zM33,45H34V46H33zM34,45H35V46H34zM35,45H36V46H35zM36,45H37V46H36zM39,45H40V46H39zM40,45H41V46H40zM42,45H43V46H42zM44,45H45V46H44zM48,45H49V46H48zM50,45H51V46H50zM51,45H52V46H51zM52,45H53V46H52zM55,45H56V46H55zM56,45H57V46H56zM57,45H58V46H57zM58,45H59V46H58zM59,45H60V46H59zM62,45H63V46H62zM64,45H65V46H64zM68,45H69V46H68zM69,45H70V46H69zM70,45H71V46H70zM0,46H1V47H0zM1,46H2V47H1zM2,46H3V47H2zM3,46H4V47H3zM4,46H5V47H4zM6,46H7V47H6zM8,46H9V47H8zM9,46H10V47H9zM10,46H11V47H10zM11,46H12V47H11zM13,46H14V47H13zM16,46H17V47H16zM17,46H18V47H17zM19,46H20V47H19zM20,46H21V47H20zM21,46H22V47H21zM24,46H25V47H24zM26,46H27V47H26zM28,46H29V47H28zM30,46H31V47H30zM31,46H32V47H31zM35,46H36V47H35zM38,46H39V47H38zM39,46H40V47H39zM40,46H41V47H40zM42,46H43V47H42zM43,46H44V47H43zM44,46H45V47H44zM46,46H47V47H46zM48,46H49V47H48zM49,46H50V47H49zM50,46H51V47H50zM51,46H52V47H51zM53,46H54V47H53zM55,46H56V47H55zM56,46H57V47H56zM58,46H59V47H58zM59,46H60V47H59zM61,46H62V47H61zM64,46H65V47H64zM66,46H67V47H66zM68,46H69V47H68zM69,46H70V47H69zM70,46H71V47H70zM72,46H73V47H72zM2,47H3V48H2zM3,47H4V48H3zM4,47H5V48H4zM8,47H9V48H8zM9,47H10V48H9zM10,47H11V48H10zM14,47H15V48H14zM16,47H17V48H16zM20,47H21V48H20zM21,47H22V48H21zM23,47H24V48H23zM24,47H25V48H24zM28,47H29V48H28zM29,47H30V48H29zM33,47H34V48H33zM34,47H35V48H34zM35,47H36V48H35zM37,47H38V48H37zM40,47H41V48H40zM44,47H45V48H44zM48,47H49V48H48zM50,47H51V48H50zM53,47H54V48H53zM54,47H55V48H54zM56,47H57V48H56zM59,47H60V48H59zM60,47H61V48H60zM61,47H62V48H61zM63,47H64V48H63zM64,47H65V48H64zM68,47H69V48H68zM70,47H71V48H70zM72,47H73V48H72zM0,48H1V49H0zM1,48H2V49H1zM2,48H3V49H2zM3,48H4V49H3zM4,48H5V49H4zM5,48H6V49H5zM6,48H7V49H6zM7,48H8V49H7zM8,48H9V49H8zM9,48H10V49H9zM11,48H12V49H11zM13,48H14V49H13zM14,48H15V49H14zM17,48H18V49H17zM18,48H19V49H18zM20,48H21V49H20zM21,48H22V49H21zM23,48H24V49H23zM24,48H25V49H24zM25,48H26V49H25zM26,48H27V49H26zM27,48H28V49H27zM28,48H29V49H28zM29,48H30V49H29zM30,48H31V49H30zM33,48H34V49H33zM34,48H35V49H34zM37,48H38V49H37zM40,48H41V49H40zM41,48H42V49H41zM44,48H45V49H44zM45,48H46V49H45zM46,48H47V49H46zM47,48H48V49H47zM48,48H49V49H48zM53,48H54V49H53zM54,48H55V49H54zM55,48H56V49H55zM58,48H59V49H58zM59,48H60V49H59zM60,48H61V49H60zM61,48H62V49H61zM62,48H63V49H62zM64,48H65V49H64zM65,48H66V49H65zM66,48H67V49H66zM67,48H68V49H67zM68,48H69V49H68zM69,48H70V49H69zM70,48H71V49H70zM71,48H72V49H71zM1,49H2V50H1zM3,49H4V50H3zM5,49H6V50H5zM8,49H9V50H8zM10,49H11V50H10zM13,49H14V50H13zM14,49H15V50H14zM16,49H17V50H16zM17,49H18V50H17zM19,49H20V50H19zM23,49H24V50H23zM24,49H25V50H24zM27,49H28V50H27zM28,49H29V50H28zM29,49H30V50H29zM30,49H31V50H30zM31,49H32V50H31zM34,49H35V50H34zM36,49H37V50H36zM37,49H38V50H37zM38,49H39V50H38zM43,49H44V50H43zM46,49H47V50H46zM47,49H48V50H47zM48,49H49V50H48zM50,49H51V50H50zM51,49H52V50H51zM52,49H53V50H52zM56,49H57V50H56zM57,49H58V50H57zM58,49H59V50H58zM59,49H60V50H59zM60,49H61V50H60zM64,49H65V50H64zM65,49H66V50H65zM67,49H68V50H67zM0,50H1V51H0zM1,50H2V51H1zM5,50H6V51H5zM6,50H7V51H6zM7,50H8V51H7zM8,50H9V51H8zM9,50H10V51H9zM10,50H11V51H10zM13,50H14V51H13zM15,50H16V51H15zM17,50H18V51H17zM19,50H20V51H19zM23,50H24V51H23zM24,50H25V51H24zM29,50H30V51H29zM32,50H33V51H32zM33,50H34V51H33zM34,50H35V51H34zM35,50H36V51H35zM37,50H38V51H37zM39,50H40V51H39zM41,50H42V51H41zM43,50H44V51H43zM45,50H46V51H45zM46,50H47V51H46zM49,50H50V51H49zM50,50H51V51H50zM51,50H52V51H51zM55,50H56V51H55zM57,50H58V51H57zM58,50H59V51H58zM60,50H61V51H60zM61,50H62V51H61zM63,50H64V51H63zM64,50H65V51H64zM65,50H66V51H65zM66,50H67V51H66zM69,50H70V51H69zM70,50H71V51H70zM4,51H5V52H4zM5,51H6V52H5zM8,51H9V52H8zM10,51H11V52H10zM14,51H15V52H14zM15,51H16V52H15zM16,51H17V52H16zM19,51H20V52H19zM20,51H21V52H20zM21,51H22V52H21zM22,51H23V52H22zM24,51H25V52H24zM26,51H27V52H26zM27,51H28V52H27zM28,51H29V52H28zM29,51H30V52H29zM31,51H32V52H31zM34,51H35V52H34zM37,51H38V52H37zM38,51H39V52H38zM40,51H41V52H40zM41,51H42V52H41zM43,51H44V52H43zM44,51H45V52H44zM46,51H47V52H46zM48,51H49V52H48zM49,51H50V52H49zM51,51H52V52H51zM52,51H53V52H52zM55,51H56V52H55zM56,51H57V52H56zM60,51H61V52H60zM61,51H62V52H61zM62,51H63V52H62zM63,51H64V52H63zM64,51H65V52H64zM66,51H67V52H66zM67,51H68V52H67zM69,51H70V52H69zM70,51H71V52H70zM72,51H73V52H72zM0,52H1V53H0zM1,52H2V53H1zM2,52H3V53H2zM4,52H5V53H4zM6,52H7V53H6zM9,52H10V53H9zM10,52H11V53H10zM11,52H12V53H11zM13,52H14V53H13zM16,52H17V53H16zM18,52H19V53H18zM19,52H20V53H19zM22,52H23V53H22zM23,52H24V53H23zM27,52H28V53H27zM28,52H29V53H28zM31,52H32V53H31zM32,52H33V53H32zM33,52H34V53H33zM34,52H35V53H34zM38,52H39V53H38zM43,52H44V53H43zM45,52H46V53H45zM46,52H47V53H46zM48,52H49V53H48zM49,52H50V53H49zM52,52H53V53H52zM53,52H54V53H53zM56,52H57V53H56zM58,52H59V53H58zM60,52H61V53H60zM62,52H63V53H62zM64,52H65V53H64zM70,52H71V53H70zM72,52H73V53H72zM0,53H1V54H0zM1,53H2V54H1zM5,53H6V54H5zM7,53H8V54H7zM8,53H9V54H8zM16,53H17V54H16zM17,53H18V54H17zM19,53H20V54H19zM20,53H21V54H20zM23,53H24V54H23zM27,53H28V54H27zM28,53H29V54H28zM29,53H30V54H29zM34,53H35V54H34zM35,53H36V54H35zM36,53H37V54H36zM37,53H38V54H37zM38,53H39V54H38zM39,53H40V54H39zM41,53H42V54H41zM43,53H44V54H43zM49,53H50V54H49zM50,53H51V54H50zM51,53H52V54H51zM52,53H53V54H52zM55,53H56V54H55zM57,53H58V54H57zM59,53H60V54H59zM61,53H62V54H61zM63,53H64V54H63zM64,53H65V54H64zM65,53H66V54H65zM66,53H67V54H66zM69,53H70V54H69zM70,53H71V54H70zM71,53H72V54H71zM1,54H2V55H1zM3,54H4V55H3zM4,54H5V55H4zM6,54H7V55H6zM8,54H9V55H8zM9,54H10V55H9zM10,54H11V55H10zM12,54H13V55H12zM14,54H15V55H14zM16,54H17V55H16zM17,54H18V55H17zM21,54H22V55H21zM25,54H26V55H25zM27,54H28V55H27zM30,54H31V55H30zM31,54H32V55H31zM33,54H34V55H33zM39,54H40V55H39zM40,54H41V55H40zM42,54H43V55H42zM44,54H45V55H44zM45,54H46V55H45zM46,54H47V55H46zM49,54H50V55H49zM51,54H52V55H51zM52,54H53V55H52zM53,54H54V55H53zM55,54H56V55H55zM56,54H57V55H56zM57,54H58V55H57zM58,54H59V55H58zM61,54H62V55H61zM64,54H65V55H64zM65,54H66V55H65zM66,54H67V55H66zM67,54H68V55H67zM68,54H69V55H68zM69,54H70V55H69zM71,54H72V55H71zM72,54H73V55H72zM1,55H2V56H1zM5,55H6V56H5zM10,55H11V56H10zM11,55H12V56H11zM12,55H13V56H12zM14,55H15V56H14zM15,55H16V56H15zM18,55H19V56H18zM20,55H21V56H20zM22,55H23V56H22zM23,55H24V56H23zM24,55H25V56H24zM26,55H27V56H26zM27,55H28V56H27zM31,55H32V56H31zM33,55H34V56H33zM35,55H36V56H35zM36,55H37V56H36zM41,55H42V56H41zM42,55H43V56H42zM49,55H50V56H49zM50,55H51V56H50zM51,55H52V56H51zM54,55H55V56H54zM55,55H56V56H55zM57,55H58V56H57zM59,55H60V56H59zM63,55H64V56H63zM64,55H65V56H64zM65,55H66V56H65zM66,55H67V56H66zM68,55H69V56H68zM72,55H73V56H72zM0,56H1V57H0zM1,56H2V57H1zM2,56H3V57H2zM4,56H5V57H4zM5,56H6V57H5zM6,56H7V57H6zM10,56H11V57H10zM13,56H14V57H13zM14,56H15V57H14zM16,56H17V57H16zM17,56H18V57H17zM18,56H19V57H18zM19,56H20V57H19zM23,56H24V57H23zM25,56H26V57H25zM26,56H27V57H26zM27,56H28V57H27zM28,56H29V57H28zM29,56H30V57H29zM36,56H37V57H36zM39,56H40V57H39zM41,56H42V57H41zM42,56H43V57H42zM43,56H44V57H43zM44,56H45V57H44zM47,56H48V57H47zM48,56H49V57H48zM53,56H54V57H53zM54,56H55V57H54zM57,56H58V57H57zM58,56H59V57H58zM59,56H60V57H59zM60,56H61V57H60zM61,56H62V57H61zM62,56H63V57H62zM63,56H64V57H63zM64,56H65V57H64zM67,56H68V57H67zM68,56H69V57H68zM70,56H71V57H70zM71,56H72V57H71zM1,57H2V58H1zM3,57H4V58H3zM4,57H5V58H4zM8,57H9V58H8zM10,57H11V58H10zM11,57H12V58H11zM14,57H15V58H14zM16,57H17V58H16zM21,57H22V58H21zM23,57H24V58H23zM25,57H26V58H25zM26,57H27V58H26zM28,57H29V58H28zM31,57H32V58H31zM33,57H34V58H33zM34,57H35V58H34zM35,57H36V58H35zM36,57H37V58H36zM37,57H38V58H37zM41,57H42V58H41zM42,57H43V58H42zM45,57H46V58H45zM47,57H48V58H47zM50,57H51V58H50zM51,57H52V58H51zM54,57H55V58H54zM57,57H58V58H57zM58,57H59V58H58zM59,57H60V58H59zM61,57H62V58H61zM62,57H63V58H62zM63,57H64V58H63zM64,57H65V58H64zM69,57H70V58H69zM71,57H72V58H71zM72,57H73V58H72zM0,58H1V59H0zM2,58H3V59H2zM4,58H5V59H4zM5,58H6V59H5zM6,58H7V59H6zM7,58H8V59H7zM12,58H13V59H12zM13,58H14V59H13zM15,58H16V59H15zM17,58H18V59H17zM18,58H19V59H18zM20,58H21V59H20zM21,58H22V59H21zM22,58H23V59H22zM24,58H25V59H24zM25,58H26V59H25zM26,58H27V59H26zM27,58H28V59H27zM28,58H29V59H28zM29,58H30V59H29zM33,58H34V59H33zM34,58H35V59H34zM36,58H37V59H36zM37,58H38V59H37zM38,58H39V59H38zM39,58H40V59H39zM41,58H42V59H41zM43,58H44V59H43zM44,58H45V59H44zM45,58H46V59H45zM46,58H47V59H46zM47,58H48V59H47zM50,58H51V59H50zM51,58H52V59H51zM52,58H53V59H52zM53,58H54V59H53zM55,58H56V59H55zM56,58H57V59H56zM58,58H59V59H58zM60,58H61V59H60zM62,58H63V59H62zM64,58H65V59H64zM66,58H67V59H66zM67,58H68V59H67zM69,58H70V59H69zM71,58H72V59H71zM1,59H2V60H1zM2,59H3V60H2zM4,59H5V60H4zM5,59H6V60H5zM10,59H11V60H10zM11,59H12V60H11zM13,59H14V60H13zM15,59H16V60H15zM17,59H18V60H17zM18,59H19V60H18zM19,59H20V60H19zM22,59H23V60H22zM23,59H24V60H23zM32,59H33V60H32zM33,59H34V60H33zM39,59H40V60H39zM40,59H41V60H40zM42,59H43V60H42zM45,59H46V60H45zM46,59H47V60H46zM48,59H49V60H48zM50,59H51V60H50zM55,59H56V60H55zM56,59H57V60H56zM57,59H58V60H57zM59,59H60V60H59zM61,59H62V60H61zM62,59H63V60H62zM64,59H65V60H64zM66,59H67V60H66zM67,59H68V60H67zM71,59H72V60H71zM0,60H1V61H0zM2,60H3V61H2zM3,60H4V61H3zM4,60H5V61H4zM5,60H6V61H5zM6,60H7V61H6zM7,60H8V61H7zM8,60H9V61H8zM9,60H10V61H9zM14,60H15V61H14zM16,60H17V61H16zM17,60H18V61H17zM18,60H19V61H18zM20,60H21V61H20zM21,60H22V61H21zM23,60H24V61H23zM25,60H26V61H25zM27,60H28V61H27zM33,60H34V61H33zM36,60H37V61H36zM37,60H38V61H37zM39,60H40V61H39zM40,60H41V61H40zM41,60H42V61H41zM42,60H43V61H42zM43,60H44V61H43zM46,60H47V61H46zM53,60H54V61H53zM54,60H55V61H54zM56,60H57V61H56zM57,60H58V61H57zM59,60H60V61H59zM60,60H61V61H60zM62,60H63V61H62zM65,60H66V61H65zM66,60H67V61H66zM67,60H68V61H67zM69,60H70V61H69zM71,60H72V61H71zM72,60H73V61H72zM0,61H1V62H0zM8,61H9V62H8zM11,61H12V62H11zM14,61H15V62H14zM15,61H16V62H15zM19,61H20V62H19zM27,61H28V62H27zM28,61H29V62H28zM29,61H30V62H29zM33,61H34V62H33zM36,61H37V62H36zM37,61H38V62H37zM39,61H40V62H39zM42,61H43V62H42zM46,61H47V62H46zM48,61H49V62H48zM49,61H50V62H49zM50,61H51V62H50zM52,61H53V62H52zM56,61H57V62H56zM57,61H58V62H57zM59,61H60V62H59zM60,61H61V62H60zM61,61H62V62H61zM64,61H65V62H64zM65,61H66V62H65zM69,61H70V62H69zM0,62H1V63H0zM1,62H2V63H1zM3,62H4V63H3zM5,62H6V63H5zM6,62H7V63H6zM8,62H9V63H8zM9,62H10V63H9zM10,62H11V63H10zM13,62H14V63H13zM14,62H15V63H14zM15,62H16V63H15zM16,62H17V63H16zM17,62H18V63H17zM18,62H19V63H18zM19,62H20V63H19zM20,62H21V63H20zM23,62H24V63H23zM24,62H25V63H24zM27,62H28V63H27zM28,62H29V63H28zM31,62H32V63H31zM32,62H33V63H32zM33,62H34V63H33zM39,62H40V63H39zM41,62H42V63H41zM43,62H44V63H43zM50,62H51V63H50zM51,62H52V63H51zM53,62H54V63H53zM54,62H55V63H54zM55,62H56V63H55zM57,62H58V63H57zM59,62H60V63H59zM65,62H66V63H65zM66,62H67V63H66zM67,62H68V63H67zM68,62H69V63H68zM69,62H70V63H69zM70,62H71V63H70zM71,62H72V63H71zM72,62H73V63H72zM3,63H4V64H3zM4,63H5V64H4zM7,63H8V64H7zM9,63H10V64H9zM12,63H13V64H12zM13,63H14V64H13zM14,63H15V64H14zM16,63H17V64H16zM19,63H20V64H19zM20,63H21V64H20zM21,63H22V64H21zM23,63H24V64H23zM28,63H29V64H28zM31,63H32V64H31zM32,63H33V64H32zM33,63H34V64H33zM34,63H35V64H34zM36,63H37V64H36zM37,63H38V64H37zM38,63H39V64H38zM40,63H41V64H40zM41,63H42V64H41zM45,63H46V64H45zM46,63H47V64H46zM47,63H48V64H47zM48,63H49V64H48zM50,63H51V64H50zM52,63H53V64H52zM53,63H54V64H53zM54,63H55V64H54zM55,63H56V64H55zM59,63H60V64H59zM62,63H63V64H62zM63,63H64V64H63zM64,63H65V64H64zM65,63H66V64H65zM66,63H67V64H66zM67,63H68V64H67zM68,63H69V64H68zM71,63H72V64H71zM72,63H73V64H72zM0,64H1V65H0zM4,64H5V65H4zM6,64H7V65H6zM7,64H8V65H7zM12,64H13V65H12zM13,64H14V65H13zM14,64H15V65H14zM16,64H17V65H16zM17,64H18V65H17zM18,64H19V65H18zM19,64H20V65H19zM22,64H23V65H22zM24,64H25V65H24zM25,64H26V65H25zM26,64H27V65H26zM27,64H28V65H27zM28,64H29V65H28zM29,64H30V65H29zM30,64H31V65H30zM34,64H35V65H34zM36,64H37V65H36zM38,64H39V65H38zM39,64H40V65H39zM43,64H44V65H43zM44,64H45V65H44zM45,64H46V65H45zM46,64H47V65H46zM47,64H48V65H47zM48,64H49V65H48zM49,64H50V65H49zM51,64H52V65H51zM52,64H53V65H52zM53,64H54V65H53zM54,64H55V65H54zM56,64H57V65H56zM57,64H58V65H57zM61,64H62V65H61zM63,64H64V65H63zM64,64H65V65H64zM65,64H66V65H65zM66,64H67V65H66zM67,64H68V65H67zM68,64H69V65H68zM69,64H70V65H69zM71,64H72V65H71zM8,65H9V66H8zM9,65H10V66H9zM10,65H11V66H10zM11,65H12V66H11zM13,65H14V66H13zM14,65H15V66H14zM18,65H19V66H18zM19,65H20V66H19zM20,65H21V66H20zM22,65H23V66H22zM23,65H24V66H23zM24,65H25V66H24zM28,65H29V66H28zM30,65H31V66H30zM31,65H32V66H31zM35,65H36V66H35zM36,65H37V66H36zM37,65H38V66H37zM38,65H39V66H38zM41,65H42V66H41zM42,65H43V66H42zM44,65H45V66H44zM48,65H49V66H48zM51,65H52V66H51zM54,65H55V66H54zM56,65H57V66H56zM58,65H59V66H58zM59,65H60V66H59zM62,65H63V66H62zM63,65H64V66H63zM64,65H65V66H64zM68,65H69V66H68zM69,65H70V66H69zM71,65H72V66H71zM0,66H1V67H0zM1,66H2V67H1zM2,66H3V67H2zM3,66H4V67H3zM4,66H5V67H4zM5,66H6V67H5zM6,66H7V67H6zM11,66H12V67H11zM17,66H18V67H17zM19,66H20V67H19zM20,66H21V67H20zM21,66H22V67H21zM22,66H23V67H22zM24,66H25V67H24zM26,66H27V67H26zM28,66H29V67H28zM29,66H30V67H29zM31,66H32V67H31zM33,66H34V67H33zM37,66H38V67H37zM38,66H39V67H38zM39,66H40V67H39zM41,66H42V67H41zM44,66H45V67H44zM46,66H47V67H46zM48,66H49V67H48zM49,66H50V67H49zM50,66H51V67H50zM51,66H52V67H51zM53,66H54V67H53zM57,66H58V67H57zM59,66H60V67H59zM60,66H61V67H60zM63,66H64V67H63zM64,66H65V67H64zM66,66H67V67H66zM68,66H69V67H68zM69,66H70V67H69zM70,66H71V67H70zM0,67H1V68H0zM6,67H7V68H6zM8,67H9V68H8zM12,67H13V68H12zM13,67H14V68H13zM15,67H16V68H15zM18,67H19V68H18zM20,67H21V68H20zM22,67H23V68H22zM23,67H24V68H23zM24,67H25V68H24zM28,67H29V68H28zM29,67H30V68H29zM30,67H31V68H30zM31,67H32V68H31zM34,67H35V68H34zM35,67H36V68H35zM39,67H40V68H39zM40,67H41V68H40zM42,67H43V68H42zM44,67H45V68H44zM48,67H49V68H48zM51,67H52V68H51zM52,67H53V68H52zM53,67H54V68H53zM54,67H55V68H54zM56,67H57V68H56zM59,67H60V68H59zM62,67H63V68H62zM64,67H65V68H64zM68,67H69V68H68zM72,67H73V68H72zM0,68H1V69H0zM2,68H3V69H2zM3,68H4V69H3zM4,68H5V69H4zM6,68H7V69H6zM8,68H9V69H8zM9,68H10V69H9zM12,68H13V69H12zM13,68H14V69H13zM15,68H16V69H15zM18,68H19V69H18zM19,68H20V69H19zM21,68H22V69H21zM22,68H23V69H22zM23,68H24V69H23zM24,68H25V69H24zM25,68H26V69H25zM26,68H27V69H26zM27,68H28V69H27zM28,68H29V69H28zM31,68H32V69H31zM32,68H33V69H32zM37,68H38V69H37zM42,68H43V69H42zM43,68H44V69H43zM44,68H45V69H44zM45,68H46V69H45zM46,68H47V69H46zM47,68H48V69H47zM48,68H49V69H48zM49,68H50V69H49zM50,68H51V69H50zM53,68H54V69H53zM55,68H56V69H55zM58,68H59V69H58zM59,68H60V69H59zM60,68H61V69H60zM61,68H62V69H61zM64,68H65V69H64zM65,68H66V69H65zM66,68H67V69H66zM67,68H68V69H67zM68,68H69V69H68zM69,68H70V69H69zM70,68H71V69H70zM71,68H72V69H71zM0,69H1V70H0zM2,69H3V70H2zM3,69H4V70H3zM4,69H5V70H4zM6,69H7V70H6zM8,69H9V70H8zM9,69H10V70H9zM11,69H12V70H11zM12,69H13V70H12zM13,69H14V70H13zM16,69H17V70H16zM17,69H18V70H17zM20,69H21V70H20zM23,69H24V70H23zM27,69H28V70H27zM28,69H29V70H28zM30,69H31V70H30zM31,69H32V70H31zM33,69H34V70H33zM34,69H35V70H34zM35,69H36V70H35zM37,69H38V70H37zM38,69H39V70H38zM40,69H41V70H40zM42,69H43V70H42zM45,69H46V70H45zM47,69H48V70H47zM49,69H50V70H49zM50,69H51V70H50zM52,69H53V70H52zM53,69H54V70H53zM55,69H56V70H55zM56,69H57V70H56zM58,69H59V70H58zM59,69H60V70H59zM60,69H61V70H60zM61,69H62V70H61zM62,69H63V70H62zM63,69H64V70H63zM64,69H65V70H64zM65,69H66V70H65zM67,69H68V70H67zM72,69H73V70H72zM0,70H1V71H0zM2,70H3V71H2zM3,70H4V71H3zM4,70H5V71H4zM6,70H7V71H6zM8,70H9V71H8zM13,70H14V71H13zM14,70H15V71H14zM15,70H16V71H15zM16,70H17V71H16zM20,70H21V71H20zM21,70H22V71H21zM22,70H23V71H22zM25,70H26V71H25zM26,70H27V71H26zM28,70H29V71H28zM29,70H30V71H29zM30,70H31V71H30zM31,70H32V71H31zM33,70H34V71H33zM34,70H35V71H34zM41,70H42V71H41zM42,70H43V71H42zM43,70H44V71H43zM47,70H48V71H47zM50,70H51V71H50zM52,70H53V71H52zM54,70H55V71H54zM55,70H56V71H55zM56,70H57V71H56zM57,70H58V71H57zM58,70H59V71H58zM61,70H62V71H61zM62,70H63V71H62zM64,70H65V71H64zM65,70H66V71H65zM66,70H67V71H66zM67,70H68V71H67zM68,70H69V71H68zM70,70H71V71H70zM72,70H73V71H72zM0,71H1V72H0zM6,71H7V72H6zM9,71H10V72H9zM10,71H11V72H10zM11,71H12V72H11zM14,71H15V72H14zM16,71H17V72H16zM18,71H19V72H18zM19,71H20V72H19zM21,71H22V72H21zM22,71H23V72H22zM23,71H24V72H23zM30,71H31V72H30zM32,71H33V72H32zM36,71H37V72H36zM37,71H38V72H37zM38,71H39V72H38zM45,71H46V72H45zM47,71H48V72H47zM51,71H52V72H51zM52,71H53V72H52zM56,71H57V72H56zM57,71H58V72H57zM58,71H59V72H58zM62,71H63V72H62zM63,71H64V72H63zM67,71H68V72H67zM69,71H70V72H69zM72,71H73V72H72zM0,72H1V73H0zM1,72H2V73H1zM2,72H3V73H2zM3,72H4V73H3zM4,72H5V73H4zM5,72H6V73H5zM6,72H7V73H6zM8,72H9V73H8zM12,72H13V73H12zM13,72H14V73H13zM14,72H15V73H14zM17,72H18V73H17zM19,72H20V73H19zM20,72H21V73H20zM25,72H26V73H25zM27,72H28V73H27zM29,72H30V73H29zM30,72H31V73H30zM31,72H32V73H31zM34,72H35V73H34zM37,72H38V73H37zM39,72H40V73H39zM41,72H42V73H41zM46,72H47V73H46zM47,72H48V73H47zM52,72H53V73H52zM53,72H54V73H53zM54,72H55V73H54zM55,72H56V73H55zM56,72H57V73H56zM58,72H59V73H58zM59,72H60V73H59zM60,72H61V73H60zM61,72H62V73H61zM66,72H67V73H66zM67,72H68V73H67zM69,72H70V73H69zM70,72H71V73H70zM71,72H72V73H71zM72,72H73V73H72z" id="qr-path" fill="#6B5E53" fill-opacity="1" fill-rule="nonzero" stroke="none" /></svg>